<svg xmlns="http://www.w3.org/2000/svg" width="153" height="33" viewBox="0 0 153 33" fill="none">
<g clip-path="url(#clip0_31_1502)">
<path d="M120.326 13.733L116.9 32.515H111.881L106.868 0.482117H111.597L114.873 21.9289L118.405 0.482117H122.247L125.782 21.9289L129.056 0.482117H133.784L128.771 32.515H123.752L120.326 13.733Z" fill="black"/>
<path d="M92.0756 32.515L84.2437 10.9221V32.515H79.8027V0.482117H85.1648L92.9497 21.9289V0.482117H97.3907V32.515H92.0756Z" fill="black"/>
<path d="M144.749 33C140.199 33 136.498 29.2746 136.498 24.693V0.482117H141.405V24.6901C141.405 26.5455 142.904 28.0532 144.749 28.0532C146.594 28.0532 148.093 26.5455 148.093 24.6901V0.482117H153V24.6901C153 29.2717 149.298 32.9971 144.749 32.9971V33Z" fill="black"/>
<path d="M24.4987 0.482117L18.4238 32.515H23.2931L24.5339 25.4147H31.4564L32.9788 32.515H37.9478L31.1983 0.482117H24.4957H24.4987ZM25.0266 20.9501L27.6079 5.77369L30.77 20.9501H25.0296H25.0266Z" fill="black"/>
<path d="M67.703 0C63.1535 0 59.4517 3.72543 59.4517 8.30698V24.6901C59.4517 29.2717 63.1535 32.9971 67.703 32.9971C72.2525 32.9971 75.9543 29.2717 75.9543 24.6901V8.30698C75.9543 3.72543 72.2525 0 67.703 0ZM71.0469 24.6901C71.0469 26.5455 69.548 28.0532 67.703 28.0532C65.858 28.0532 64.359 26.5455 64.359 24.6901V8.30698C64.359 6.45157 65.858 4.94386 67.703 4.94386C69.548 4.94386 71.0469 6.45157 71.0469 8.30698V24.6901Z" fill="black"/>
<path d="M49.5023 14.6037C49.0153 14.2677 48.5137 13.9229 48.0386 13.5781C47.93 13.4963 47.8215 13.4145 47.71 13.3327C46.0674 12.0996 44.3661 10.8257 44.3661 9.02869V8.30698C44.3661 6.51585 45.9295 4.94386 47.71 4.94386C49.4905 4.94386 50.8516 6.39021 50.8516 8.30698V11.1237H55.759V8.30698C55.759 3.64946 52.2243 0 47.71 0C43.1957 0 39.4587 3.72543 39.4587 8.30698L39.4675 10.0806C39.4675 13.9083 43.448 16.7133 47.2994 19.4248L47.713 19.717C49.382 20.839 51.0862 22.2269 51.0862 23.9947V24.6959C51.0862 26.4871 49.5228 28.0591 47.7423 28.0591C45.8533 28.0591 44.196 26.4871 44.196 24.6959V20.953L39.2886 20.9471V24.693C39.2886 26.8991 40.1832 28.9853 41.8053 30.5661C43.4186 32.138 45.5277 33.0029 47.7452 33.0029C52.2947 33.0029 55.9965 29.2746 55.9965 24.6959L55.9877 22.9457C55.9877 19.0713 52.6907 16.801 49.5052 14.6066L49.5023 14.6037Z" fill="black"/>
<path d="M11.5953 24.6901C11.5953 26.5455 10.0964 28.0532 8.25132 28.0532C6.40629 28.0532 4.90738 26.5455 4.90738 24.6901V20.9442H0V24.6901C0 29.2716 3.7018 32.9971 8.25132 32.9971C12.8008 32.9971 16.5026 29.2716 16.5026 24.6901V0.482117H11.5953V24.6901Z" fill="black"/>
</g>
<defs>
<clipPath id="clip0_31_1502">
<rect width="153" height="33" fill="white"/>
</clipPath>
</defs>
</svg>