<svg xmlns="http://www.w3.org/2000/svg" viewBox="0 0 203.93 42.24"><defs><style>.cls-1{fill:#272829;}</style></defs><title>kristin-ess-hair-full-logo</title><g id="Layer_2" data-name="Layer 2"><g id="Layer_1-2" data-name="Layer 1"><path class="cls-1" d="M0,.45H3.27V9.06L13.48.45h2.14L5.9,8.62,18.22,19.89H14.07L3.27,10v9.87H0Z"/><path class="cls-1" d="M24.74.45h6.72a11.3,11.3,0,0,1,3.08.37,6.53,6.53,0,0,1,2.2,1.06,4.38,4.38,0,0,1,1.32,1.6,4.61,4.61,0,0,1,.45,2,4.2,4.2,0,0,1-.34,1.7,4.66,4.66,0,0,1-1,1.42,6.19,6.19,0,0,1-1.51,1.1,7.71,7.71,0,0,1-1.94.72l7.08,9.44H37.05l-6.76-9.14H28v9.14H24.74ZM28,9.77h1.89a6.91,6.91,0,0,0,2-.29,5.33,5.33,0,0,0,1.61-.83A4,4,0,0,0,34.6,7.34,3.85,3.85,0,0,0,35,5.62,4,4,0,0,0,34.67,4a3.69,3.69,0,0,0-.85-1.26A3.84,3.84,0,0,0,32.52,2a4.59,4.59,0,0,0-1.64-.29H28Z"/><path class="cls-1" d="M47.24.45h3.27V19.89H47.24Z"/><path class="cls-1" d="M64.68,19.1a5.35,5.35,0,0,0,1.43-.19,4.06,4.06,0,0,0,1.26-.59,3.18,3.18,0,0,0,.88-.95,2.46,2.46,0,0,0,.34-1.31,2.84,2.84,0,0,0-.46-1.58,5.58,5.58,0,0,0-1.21-1.28,11.68,11.68,0,0,0-1.71-1.09l-2-1c-.67-.34-1.32-.7-2-1.08a10.22,10.22,0,0,1-1.71-1.26,5.81,5.81,0,0,1-1.21-1.55,4.06,4.06,0,0,1-.46-2,5.07,5.07,0,0,1,.42-2.07,4.65,4.65,0,0,1,1.23-1.66,5.85,5.85,0,0,1,2-1.09A8.31,8.31,0,0,1,64.26,0a7.3,7.3,0,0,1,4.36,1.16,6.39,6.39,0,0,1,2.31,3.35l-1.67.76a8.38,8.38,0,0,0-.75-1.63,5.35,5.35,0,0,0-1.09-1.27A4.61,4.61,0,0,0,66,1.56a5.61,5.61,0,0,0-1.85-.29,4.61,4.61,0,0,0-1.61.26,3.39,3.39,0,0,0-1.15.67,2.66,2.66,0,0,0-.68.93,2.55,2.55,0,0,0-.23,1.07,2.31,2.31,0,0,0,.47,1.4,6,6,0,0,0,1.24,1.21,14.41,14.41,0,0,0,1.76,1.1l2,1.06c.68.37,1.35.74,2,1.13a10,10,0,0,1,1.76,1.29,6,6,0,0,1,1.24,1.53,3.58,3.58,0,0,1,.48,1.84A5.39,5.39,0,0,1,71,16.93a4.85,4.85,0,0,1-1.32,1.78,6.6,6.6,0,0,1-2.18,1.2,10.5,10.5,0,0,1-5.54.13A6.51,6.51,0,0,1,60,19.15a6,6,0,0,1-1.45-1.44,8.16,8.16,0,0,1-1-1.93l1.76-.72a6.87,6.87,0,0,0,.82,1.7A5.68,5.68,0,0,0,61.35,18a5,5,0,0,0,1.54.79A5.83,5.83,0,0,0,64.68,19.1Z"/><path class="cls-1" d="M94.57.45V1.7h-7V19.89H84.27V1.7h-7V.45Z"/><path class="cls-1" d="M101.54.45h3.26V19.89h-3.26Z"/><path class="cls-1" d="M113.66.45h1.83l12.74,14.2h.12V.45h1.44v19.9H129L115.24,4.54h-.11V19.89h-1.47Z"/><path class="cls-1" d="M164.53.45V1.7H154.29v7h6.85V9.91h-6.85v8.72h10.24v1.26H151V.45Z"/><path class="cls-1" d="M177.45,19.1a5.35,5.35,0,0,0,1.43-.19,3.9,3.9,0,0,0,1.25-.59,3.09,3.09,0,0,0,.89-.95,2.55,2.55,0,0,0,.33-1.31,2.76,2.76,0,0,0-.46-1.58,5.53,5.53,0,0,0-1.2-1.28A11.68,11.68,0,0,0,178,12.11l-2-1c-.67-.34-1.32-.7-2-1.08a9.46,9.46,0,0,1-1.71-1.26,5.81,5.81,0,0,1-1.21-1.55,4.06,4.06,0,0,1-.46-2,5.07,5.07,0,0,1,.42-2.07,4.65,4.65,0,0,1,1.23-1.66,5.8,5.8,0,0,1,2-1.09A8.37,8.37,0,0,1,177,0a7.32,7.32,0,0,1,4.36,1.16,6.5,6.5,0,0,1,2.31,3.35L182,5.27a7.8,7.8,0,0,0-.74-1.63,5.35,5.35,0,0,0-1.09-1.27,4.61,4.61,0,0,0-1.46-.81,5.67,5.67,0,0,0-1.86-.29,4.65,4.65,0,0,0-1.61.26,3.34,3.34,0,0,0-1.14.67,2.66,2.66,0,0,0-.68.93,2.56,2.56,0,0,0-.24,1.07,2.26,2.26,0,0,0,.48,1.4,5.72,5.72,0,0,0,1.24,1.21,13.68,13.68,0,0,0,1.76,1.1l2,1.06c.68.37,1.35.74,2,1.13a10.38,10.38,0,0,1,1.76,1.29,6,6,0,0,1,1.24,1.53,3.58,3.58,0,0,1,.48,1.84,5.39,5.39,0,0,1-.44,2.17,5.08,5.08,0,0,1-1.32,1.78,6.75,6.75,0,0,1-2.19,1.2,10.46,10.46,0,0,1-5.53.13,6.51,6.51,0,0,1-1.94-.89,5.84,5.84,0,0,1-1.45-1.44,8.16,8.16,0,0,1-1-1.93l1.76-.72a6.53,6.53,0,0,0,.82,1.7A5.68,5.68,0,0,0,174.12,18a5.06,5.06,0,0,0,1.53.79A5.9,5.9,0,0,0,177.45,19.1Z"/><path class="cls-1" d="M197.19,19.1a5.35,5.35,0,0,0,1.43-.19,4.06,4.06,0,0,0,1.26-.59,3.18,3.18,0,0,0,.88-.95,2.55,2.55,0,0,0,.34-1.31,2.84,2.84,0,0,0-.46-1.58,5.58,5.58,0,0,0-1.21-1.28,11.68,11.68,0,0,0-1.71-1.09l-2-1c-.67-.34-1.32-.7-2-1.08a10.22,10.22,0,0,1-1.71-1.26,5.81,5.81,0,0,1-1.21-1.55,4.06,4.06,0,0,1-.46-2,5.07,5.07,0,0,1,.42-2.07,4.65,4.65,0,0,1,1.23-1.66,5.85,5.85,0,0,1,2-1.09,8.31,8.31,0,0,1,2.71-.4,7.3,7.3,0,0,1,4.36,1.16,6.39,6.39,0,0,1,2.31,3.35l-1.67.76A8.38,8.38,0,0,0,201,3.64a5.35,5.35,0,0,0-1.09-1.27,4.61,4.61,0,0,0-1.46-.81,5.61,5.61,0,0,0-1.85-.29,4.61,4.61,0,0,0-1.61.26,3.29,3.29,0,0,0-1.15.67,2.66,2.66,0,0,0-.68.93A2.55,2.55,0,0,0,193,4.2a2.25,2.25,0,0,0,.47,1.4,6,6,0,0,0,1.24,1.21,13.68,13.68,0,0,0,1.76,1.1l2,1.06c.68.37,1.35.74,2,1.13a10.38,10.38,0,0,1,1.76,1.29,6,6,0,0,1,1.24,1.53,3.58,3.58,0,0,1,.48,1.84,5.39,5.39,0,0,1-.44,2.17,4.85,4.85,0,0,1-1.32,1.78,6.7,6.7,0,0,1-2.18,1.2,10.5,10.5,0,0,1-5.54.13,6.51,6.51,0,0,1-1.94-.89,5.84,5.84,0,0,1-1.45-1.44,8.16,8.16,0,0,1-1-1.93l1.76-.72a6.53,6.53,0,0,0,.82,1.7A5.68,5.68,0,0,0,193.86,18a5,5,0,0,0,1.54.79A5.83,5.83,0,0,0,197.19,19.1Z"/><path class="cls-1" d="M77.41,42.24V38H70.93v4.21H69.71V32.88h1.22v3.91h6.48V32.88h1.23v9.36Z"/><path class="cls-1" d="M99.41,42.24l-1.3-2.34H91.63l-1.32,2.34H89l5.33-9.36h1.11l5.24,9.36ZM94.9,34.16l-2.56,4.5h5.08Z"/><path class="cls-1" d="M111.1,42.24V32.88h1.23v9.36Z"/><path class="cls-1" d="M132.67,42.24,130,38.45h-4.18v3.79h-1.21V32.88h5.82c1.8,0,3.58.7,3.58,2.77a2.78,2.78,0,0,1-2.54,2.71l2.74,3.88Zm-2.23-8.13h-4.61v3.12h4.61c1.09,0,2.34-.25,2.34-1.58S131.51,34.11,130.44,34.11Z"/></g></g></svg>