<svg width="117" height="22" viewBox="0 0 117 22" fill="none" xmlns="http://www.w3.org/2000/svg">
  <g clip-path="url(#clip0_308_276)">
    <path d="M31.0687 7.35678C31.0687 10.834 29.6393 13.0245 26.7804 13.9283L31.9772 21.5865H27.7177L22.9756 14.5017H18.5731V21.5865H15.223V0.509277H22.6101C25.6365 0.509277 27.8027 1.05249 29.1087 2.13891C30.4147 3.22533 31.0681 4.96394 31.0687 7.35474V7.35678ZM26.6106 10.339C27.2898 9.71838 27.6294 8.71922 27.6294 7.3415C27.6294 5.96378 27.2802 5.01894 26.5818 4.50696C25.8815 3.99499 24.6317 3.73866 22.8326 3.73798H18.5731V11.275H22.7482C24.6413 11.275 25.9288 10.9634 26.6106 10.34" fill="currentColor"></path>
    <path d="M52.5083 18.6776C50.5014 20.7567 48.0214 21.7963 45.0685 21.7963C42.1156 21.7963 39.6357 20.756 37.6287 18.6756C35.6218 16.5957 34.6183 14.0033 34.6183 10.8981C34.6183 7.79302 35.6218 5.20022 37.6287 3.11972C39.6351 1.03991 42.115 0 45.0685 0C48.0221 0 50.502 1.04025 52.5083 3.12074C54.5153 5.20055 55.5188 7.79302 55.5188 10.8981C55.5188 14.0033 54.5153 16.5961 52.5083 18.6766V18.6776ZM50.0524 5.48676C48.6991 4.00176 47.0378 3.25926 45.0685 3.25926C43.0993 3.25926 41.438 4.00278 40.0847 5.48981C38.7314 6.97617 38.0547 8.77895 38.0547 10.8981C38.0547 13.0173 38.7314 14.8211 40.0847 16.3095C41.4387 17.7986 43.0999 18.5411 45.0685 18.537C47.0371 18.533 48.7 17.7894 50.0572 16.3065C51.4105 14.8194 52.0872 13.0156 52.0872 10.8951C52.0872 8.77454 51.4089 6.97176 50.0524 5.48676Z" fill="currentColor"></path>
    <path d="M68.8087 18.3608C69.9638 18.3608 70.958 18.1548 71.7914 17.7426C72.6247 17.3304 73.4955 16.6721 74.4037 15.7677L76.5613 18.1194C74.4603 20.591 71.9094 21.8272 68.9085 21.8279C65.9077 21.8286 63.4181 20.8036 61.4399 18.753C59.4605 16.703 58.4714 14.1102 58.4727 10.9745C58.4739 7.83886 59.4819 5.22466 61.4965 3.13194C63.5131 1.04398 66.0592 0 69.1349 0C72.2106 0 74.7804 1.20593 76.8443 3.61778L74.7155 6.08972C73.7683 5.12552 72.8739 4.45364 72.0322 4.07407C71.1905 3.69451 70.2014 3.5037 69.0649 3.50167C67.0573 3.50167 65.3723 4.18985 64.0101 5.5662C62.6478 6.94256 61.9663 8.7012 61.9657 10.8421C61.9657 12.9831 62.6423 14.7723 63.9957 16.2097C65.349 17.6472 66.9534 18.3656 68.8087 18.3649" fill="currentColor"></path>
    <path d="M80.651 21.5865V0.512329H84.002V9.64742H93.8556V0.512329H97.2066V21.5865H93.8556V12.9637H84.002V21.5865H80.651Z" fill="currentColor"></path>
    <path d="M116.659 0.512329V3.85918H106.067V9.43659H115.58V12.6021H106.067V18.2407H117V21.5865H102.716V0.512329H116.659Z" fill="currentColor"></path>
    <path d="M1.8063 16.9767C1.78647 17.5797 1.88624 18.0787 2.10561 18.4739C2.32499 18.8691 2.66876 19.0752 3.13692 19.0922C3.607 19.1098 3.9722 18.9299 4.2325 18.5523C4.49281 18.1748 4.78733 17.36 5.11607 16.1079C5.44417 14.8592 5.8778 13.9249 6.41695 13.3049C6.95611 12.685 7.73095 12.3937 8.74147 12.431C9.75071 12.4677 10.5569 12.9019 11.16 13.7337C11.7631 14.5655 12.0432 15.6377 12.0004 16.9502C11.9364 18.8725 11.2572 20.5544 9.96273 21.996L8.53233 20.6454C9.58762 19.4408 10.137 18.1704 10.1805 16.8341C10.2022 16.1666 10.0846 15.6316 9.82746 15.2289C9.71441 15.0395 9.55878 14.8829 9.37457 14.7732C9.19036 14.6635 8.98335 14.6042 8.77217 14.6005C8.56873 14.5844 8.36476 14.6233 8.17925 14.7134C7.99374 14.8035 7.83271 14.9419 7.71112 15.1159C7.45018 15.4764 7.20331 16.1038 6.9705 16.9981C6.8008 17.6904 6.59029 18.3708 6.34021 19.0351C6.1646 19.4793 5.92476 19.8917 5.62932 20.2573C5.08761 20.9656 4.28111 21.2996 3.20983 21.2596C2.13855 21.2195 1.32694 20.7781 0.774989 19.9355C0.221122 19.0847 -0.0372644 18.0499 -0.000169394 16.831C0.0275067 16.0361 0.176212 15.2512 0.440174 14.5068C0.685549 13.7841 1.05689 13.1169 1.5348 12.54L2.97383 13.7022C2.65405 14.0532 2.38415 14.536 2.16413 15.1505C1.95125 15.7342 1.83066 16.3512 1.80725 16.9767" fill="currentColor"></path>
    <path d="M4.83989 7.78655L9.30568 7.95053C9.72492 7.9658 10.0636 7.86192 10.3188 7.63581C10.5739 7.40969 10.7092 7.08784 10.7236 6.66516C10.738 6.24247 10.5576 5.83201 10.1835 5.43173L11.518 4.6709C12.0801 5.38386 12.3475 6.15929 12.32 6.99719C12.3135 7.39482 12.2315 7.78697 12.0789 8.15013C11.9262 8.51329 11.7061 8.83998 11.4316 9.11062C10.8656 9.68303 10.1192 9.95192 9.19248 9.91729L4.77561 9.75534L4.73724 10.9338L3.24736 10.8788L3.28573 9.70136L0.520874 9.59951L0.585151 7.63173L3.34905 7.73358L3.42964 5.27284L4.91951 5.32784L4.83989 7.78655Z" fill="currentColor"></path>
    <path d="M12.0878 3.01078C11.9692 3.12905 11.8292 3.22068 11.6764 3.28018C11.5236 3.33969 11.3611 3.36584 11.1985 3.35708C11.0371 3.35495 10.8778 3.3177 10.7304 3.24763C10.5831 3.17755 10.4508 3.07615 10.3418 2.94967C10.2301 2.82557 10.1436 2.67849 10.0875 2.51751C10.0314 2.35653 10.0069 2.18505 10.0156 2.01365C10.0185 1.84135 10.0539 1.67141 10.1198 1.51394C10.1857 1.35646 10.2808 1.21467 10.3994 1.09699C10.5148 0.976009 10.6528 0.881984 10.8044 0.820945C10.9561 0.759905 11.1181 0.7332 11.2801 0.742542C11.4433 0.745966 11.6041 0.784879 11.7526 0.856879C11.9011 0.928878 12.0342 1.03243 12.1435 1.16115C12.2571 1.28581 12.3454 1.43396 12.4029 1.59639C12.4603 1.75881 12.4857 1.93205 12.4773 2.10532C12.475 2.27665 12.4392 2.4456 12.3721 2.60146C12.3051 2.75733 12.2083 2.89671 12.0878 3.01078Z" fill="currentColor"></path>
  </g>

  <defs>
    <clipPath id="clip0_308_276">
      <rect width="117" height="22" fill="white"></rect>
    </clipPath>
  </defs>
</svg>