<?xml version="1.0" encoding="utf-8"?>
<!-- Generator: Adobe Illustrator 27.5.0, SVG Export Plug-In . SVG Version: 6.00 Build 0)  -->
<svg version="1.1" id="Layer_1" xmlns="http://www.w3.org/2000/svg" xmlns:xlink="http://www.w3.org/1999/xlink" x="0px" y="0px"
	 viewBox="0 0 561.5 116.8" style="enable-background:new 0 0 561.5 116.8;" xml:space="preserve">
<style type="text/css">
	.st0{clip-path:url(#SVGID_00000075163496730706266760000010466103466023352733_);}
	.st1{fill:#E41E26;}
</style>
<g>
	<defs>
		<rect id="SVGID_1_" x="0" width="563.7" height="118.9"/>
	</defs>
	<clipPath id="SVGID_00000114037495511224332850000000765782475406905774_">
		<use xlink:href="#SVGID_1_"  style="overflow:visible;"/>
	</clipPath>
	<g style="clip-path:url(#SVGID_00000114037495511224332850000000765782475406905774_);">
		<path class="st1" d="M95.9,24.1c2.9-3.1,4.4-7.2,4.2-11.4c0.1-3.4-1-6.7-3.2-9.2c-2.1-2.4-5.1-3.7-8.2-3.6
			c-2.3-0.1-4.5,0.7-6.2,2.2c-1.6,1.4-2.4,3.5-2.4,5.6c-0.1,1.9,0.6,3.7,1.8,5.1c1.6,1.5,3.6,2.7,5.7,3.2c0.2,0.1,1,0.2,2.2,0.5
			c0.9,0.1,1.8,0.4,2.7,0.7c0.9,0.3,1.7,0.7,2.3,1.4c0.5,0.6,0.7,1.3,0.7,2.1c0,1.8-1.1,3.4-3.2,4.8c-2.5,1.5-5.3,2.4-8.1,2.7
			c-0.5,0.1-0.8,0.3-0.7,0.8c0.1,0.5,0.4,0.7,0.9,0.6C88.8,29.2,92.8,27.2,95.9,24.1"/>
		<path class="st1" d="M83.1,64.4L62.6,15.9c-0.9-2.2-1.7-4.5-2.4-6.9c-0.5-1.6-0.7-3.2-0.7-4.8c-0.1-0.8,0.2-1.6,0.8-2.2
			c0.8-0.5,1.7-0.8,2.6-0.7h0.5c0.5,0,0.7-0.2,0.7-0.5s-0.2-0.5-0.7-0.5c-0.7,0-1.6,0-2.8,0.1c-1.2,0-3.1,0.1-5.8,0.2
			c-1.7,0.1-2.8,0.1-3.5,0.1h-2.6c-0.7,0-1.9,0-3.6-0.1c-2.8-0.1-4.9-0.1-6.1-0.2c-1.2,0-2.2-0.1-2.9-0.1c-0.3,0-0.6,0.2-0.6,0.5
			c0,0,0,0,0,0.1c0,0.3,0.2,0.5,0.6,0.5h0.5c2.4-0.1,4.8,1,6.2,2.9c1.5,2,3.7,6.6,6.7,13.9l9.3,22.9L48.4,64
			c-0.1,0.1-0.2,0.3-0.3,0.4c-0.1,0.2-0.3,0.2-0.4,0.1c-0.1,0-0.1-0.1-0.1-0.1c-0.1-0.1-0.2-0.2-0.3-0.3l-13.1-34
			c-3.4-8.6-5.7-14.7-6.9-18.2c-0.9-2.4-1.5-4.8-1.8-7.4c0-1,0.5-1.9,1.3-2.4c1-0.6,2.1-0.9,3.2-0.8h1.7c0.5,0,0.7-0.2,0.6-0.5
			c0-0.3-0.3-0.5-0.6-0.5c0,0,0,0-0.1,0c-0.7,0-1.8,0-3.3,0.1c-1.5,0-4,0.1-7.5,0.2c-2.3,0.1-3.9,0.1-4.7,0.2
			c-0.8,0-1.3,0.1-1.6,0.1s-0.7,0-1.3-0.1c-0.7,0-1.9-0.1-3.6-0.2c-2.8-0.1-4.8-0.1-6-0.2S1.5,0.3,0.8,0.3C0.4,0.3,0.1,0.5,0,0.8
			c-0.1,0.3,0.2,0.5,0.9,0.5h0.2c2.8,0,4.8,0.6,6,1.8c1.2,1.2,2.6,3.6,4.3,7.1c0.7,1.5,1.5,3.4,2.4,5.6c0.9,2.2,2,5,3.3,8.4
			l21.2,55.7c0.1,0.2,0.2,0.4,0.4,0.5c0.3,0.1,0.6,0.1,0.9,0.1h2.2c0.4,0,0.8-0.2,1-0.6l16.8-37l15.1,37.1c0,0.2,0.2,0.4,0.3,0.5
			c0.3,0.1,0.6,0.1,0.9,0.1h2.2c0.2,0,0.5,0,0.7-0.1c0.2-0.1,0.3-0.3,0.3-0.5"/>
	</g>
</g>
<path class="st1" d="M534.4,52.9c-2.6-2.6-7.8-5.1-15.6-7.7c-3.5-1.2-6-2.1-7.3-2.7c-1.3-0.6-2.4-1.1-3.3-1.6
	c-1.9-0.9-3.5-2.3-4.8-4c-1-1.4-1.5-3.1-1.5-4.9c0-2.5,1.3-4.8,3.5-6.1c2.3-1.5,5.4-2.3,9.2-2.3c2.9-0.1,5.8,0.5,8.4,1.7
	c2.5,1.1,4.7,2.9,6.3,5c1.5,1.9,2.7,4.1,3.5,6.5c0.9,2.6,1.4,5.3,1.5,8.1c0.1,0.5,0.2,0.7,0.5,0.7c0.3,0,0.4-0.2,0.4-0.7
	c0-1.2,0-2.6,0.1-4.3s0.1-4.4,0.2-8c0.1-2.5,0.1-4.1,0.2-5.1c0-0.9,0.1-1.6,0.1-2.1c0-0.2,0-0.4-0.2-0.5c-0.2-0.2-0.5-0.3-0.8-0.4
	c-2.9-0.7-5.9-1.1-8.9-1.4c-2.8-0.3-6.1-0.4-9.7-0.4c-6-0.1-11.9,1.8-16.7,5.4c-4.7,3.6-7,8.2-7,13.7c0,3.4,1.4,6.7,3.9,9
	c2.6,2.5,7.6,5,15,7.4c7.2,2.5,11.9,4.6,13.9,6.3c1.9,1.5,3.1,3.9,3.1,6.3c0.1,3-1.1,5.9-3.4,7.8c-2.3,1.9-5.4,2.9-9.3,2.9
	c-2.9,0-5.7-0.6-8.2-1.8c-2.5-1.3-4.8-3.1-6.5-5.3c-1.8-2.2-3.2-4.7-4.1-7.3c-1.1-3.1-1.7-6.3-1.9-9.6c0-0.5-0.1-0.7-0.3-0.6
	c-0.2,0.1-0.3,0.3-0.3,0.7c0,2.2-0.1,4.6-0.2,7.1c-0.1,2.5-0.3,5.7-0.6,9.5c-0.1,1.2-0.1,2.1-0.2,2.5c0,0.4-0.1,0.7-0.1,0.9
	c0,0.4,0,0.8,0.2,1.2c0.1,0.2,0.4,0.4,0.6,0.5c0.2,0.1,1.5,0.5,3.7,1.2c2.1,0.7,4.2,1.2,6.3,1.5c1.5,0.2,3.1,0.4,4.8,0.5
	c1.7,0.1,3.6,0.2,5.6,0.2c7,0,12.8-1.9,17.3-5.8c4.4-3.5,6.9-8.8,6.8-14.4C538.4,58.8,537,55.4,534.4,52.9 M487.5,52.9
	c-2.6-2.6-7.8-5.1-15.6-7.7c-3.5-1.2-6-2.1-7.3-2.7c-1.3-0.6-2.4-1.1-3.3-1.6c-1.9-0.9-3.5-2.3-4.8-4c-1-1.4-1.5-3.1-1.5-4.9
	c0-2.5,1.3-4.8,3.5-6.1c2.3-1.5,5.4-2.3,9.2-2.3c2.9-0.1,5.8,0.5,8.4,1.7c2.5,1.1,4.7,2.9,6.3,5c1.5,1.9,2.7,4.1,3.5,6.5
	c0.9,2.6,1.4,5.3,1.5,8.1c0.1,0.5,0.2,0.7,0.5,0.7s0.4-0.2,0.4-0.7c0-1.2,0-2.6,0.1-4.3c0-1.7,0.1-4.4,0.2-8
	c0.1-2.5,0.1-4.1,0.2-5.1c0-0.9,0.1-1.6,0.1-2.1c0-0.2,0-0.4-0.2-0.5c-0.2-0.2-0.5-0.3-0.8-0.4c-2.9-0.7-5.9-1.1-8.9-1.4
	c-2.8-0.3-6.1-0.4-9.7-0.4c-6-0.1-11.9,1.8-16.7,5.4c-4.7,3.6-7,8.2-7,13.7c0,3.4,1.4,6.7,3.9,9c2.6,2.5,7.6,5,15,7.4
	c7.2,2.5,11.9,4.6,13.9,6.3c1.9,1.5,3,3.9,3.1,6.3c0.1,3-1.1,5.9-3.4,7.8c-2.3,1.9-5.4,2.9-9.3,2.9c-2.9,0-5.7-0.6-8.2-1.8
	c-2.5-1.3-4.8-3.1-6.5-5.3c-1.8-2.2-3.2-4.7-4.1-7.3c-1.1-3.1-1.7-6.3-1.9-9.6c0-0.5-0.1-0.7-0.3-0.6c-0.2,0.1-0.3,0.3-0.3,0.7
	c0,2.2-0.1,4.6-0.2,7.1s-0.3,5.7-0.6,9.5c-0.1,1.2-0.1,2.1-0.2,2.5c0,0.4-0.1,0.7-0.1,0.9c0,0.4,0,0.8,0.2,1.2
	c0.1,0.2,0.4,0.4,0.6,0.5c0.2,0.1,1.5,0.5,3.7,1.2c2.1,0.7,4.2,1.2,6.3,1.5c1.5,0.2,3.1,0.4,4.8,0.5c1.7,0.1,3.6,0.2,5.6,0.2
	c7,0,12.8-1.9,17.3-5.8c4.4-3.5,6.9-8.8,6.8-14.4C491.5,58.8,490.1,55.4,487.5,52.9 M421.9,37.1c-0.2,0.7-0.7,1.3-1.2,1.8
	c-0.6,0.4-1.2,0.7-1.8,0.9c-0.9,0.3-1.8,0.5-2.8,0.5c-3.9,0.2-7.5,0.3-10.7,0.3c-3.2,0.1-6.6,0.2-10,0.2c0.8-5.1,2.7-9,5.6-11.9
	c2.8-2.9,6.7-4.4,10.8-4.3c2.8-0.1,5.6,0.9,7.7,2.8c1.9,1.8,3,4.4,2.9,7C422.3,35.3,422.2,36.2,421.9,37.1 M440.6,64.5
	c3.6-5.4,6.4-11.3,8.2-17.6c0.2-0.5,0.1-0.8-0.1-0.9c-0.2,0-0.4,0.2-0.6,0.6c-2.5,8.1-6.1,14.3-10.8,18.6
	c-4.5,4.2-10.5,6.4-16.7,6.3c-7.7,0-13.9-2.2-18.7-6.7c-4.8-4.5-7.1-10.4-7.1-17.8c0-1,0-2,0.1-2.9c0-0.9,0.1-1.8,0.3-2.7h33
	c3.2,0,5.5-0.3,6.7-0.9c1.2-0.6,1.9-1.8,2.1-3.6c0.2-4.2-1.6-7.7-5.3-10.4c-3.7-2.7-8.8-4-15.4-4c-9.1,0-17.1,3.3-24,9.8
	c-7,6.5-10.4,14-10.4,22.5c0,8.4,2.6,15.1,7.9,20.1c5.3,5,12.3,7.5,21,7.5c3.2,0,6.3-0.4,9.4-1.3c3.1-1,6-2.4,8.7-4.2
	C433.4,73.7,437.5,69.4,440.6,64.5 M328.4,81.2h1.2c0.4,0,1.2,0,2.5,0.1s3.6,0.1,6.9,0.1c2.1,0.1,3.4,0.1,4.1,0.1h1.2
	c0.5,0,0.7-0.2,0.7-0.5s-0.2-0.5-0.7-0.5h-6V36.8c1.8-2.6,4-4.8,6.6-6.6c2.1-1.3,4.6-2,7.1-2c3.4-0.2,6.6,1.5,8.4,4.3
	c1.9,2.9,2.9,7.2,2.9,12.9l0.1,24c0,4.5-0.3,7.4-1,8.8c-0.7,1.4-2.3,2.1-5,2.1c-0.5,0-0.7,0.2-0.7,0.5c0,0.3,0.2,0.5,0.7,0.5h2.4
	c0.9,0,2.2,0,4-0.1c1.2-0.1,2-0.1,2.4-0.1h1c0.4,0,1.2,0,2.6,0.1s3.8,0.1,7.3,0.1c2.2,0.1,3.7,0.1,4.4,0.1h1.3
	c0.5,0,0.7-0.2,0.7-0.5c0-0.3-0.2-0.5-0.7-0.5c-2.2,0.1-3.7-0.6-4.3-2.1c-0.6-1.5-0.9-4.2-0.9-8.2V45.9c0-7.8-1.5-13.6-4.6-17.5
	c-3.1-3.9-7.6-5.8-13.7-5.8c-3.9,0-7.7,1.1-10.9,3.2c-4,2.6-7.4,5.9-10.1,9.7c0-2.4-0.5-4.8-1.4-7.1c-0.7-2-1.8-3.9-3.3-5.5
	c-0.1-0.1-0.2-0.2-0.3-0.3c-0.1,0-0.2,0-0.3,0.2c-2.1,1.6-4.4,3-6.7,4.1c-2.4,1.4-5,2.6-7.5,3.7c-0.2,0.1-0.2,0.2-0.2,0.3
	c0,0.2,0.1,0.3,0.2,0.4c1.6,1.4,2.9,2.9,4,4.7c0.8,1.2,1.2,2.6,1.3,4.1v27.5c0,5.2-0.3,8.6-0.9,10.3c-0.6,1.6-2.1,2.4-4.5,2.4
	c-0.5,0-0.7,0.2-0.7,0.5c0,0.3,0.2,0.5,0.7,0.5h2.5c1,0,2.6,0,4.7-0.1C326.9,81.2,327.9,81.2,328.4,81.2 M275.6,55.2
	c2.5-2.6,6.5-5.1,12-7.4l8-3.5v0.5c0,0.7-0.1,2.5-0.2,5.5c-0.1,3-0.2,7.2-0.4,12.6c-1.3,3.2-3.2,6.1-5.7,8.5
	c-2.4,2.3-4.9,3.5-7.5,3.4c-2.7,0-5.2-1-7.1-2.9c-1.8-2-2.8-4.6-2.7-7.3C271.8,61.1,273.1,57.7,275.6,55.2 M294.6,69
	c0,1.5-0.1,2.8-0.1,3.9c0,3.4,0.6,5.8,1.8,7.4c1.2,1.5,3.3,2.3,6.1,2.3c2.8,0,5.9-1.3,9-3.9c3.1-2.5,5.7-5.4,7.8-8.8
	c0.4-0.6,0.3-1-0.2-1.3c-0.4-0.2-0.8-0.1-1.1,0.2c0,0-0.1,0.1-0.1,0.1c-0.8,1.8-1.8,3.6-3,5.1c-1.2,1.4-2.2,2.1-3.1,2.1
	c-1,0-1.7-0.6-2.1-1.9c-0.5-2.2-0.7-4.4-0.6-6.6c0-1,0-2.2,0.1-3.7c0-1.5,0.1-3.9,0.2-7.3c0.2-3.9,0.2-6.8,0.3-8.6
	c0-1.8,0.1-3.4,0.1-4.7c0-7-1.8-12.2-5.5-15.7c-3.6-3.5-9.2-5.2-16.5-5.2c-4.1,0.1-8.2,0.9-12,2.4c-4.1,1.4-7.9,3.3-11.4,5.8
	c-1.5,1-2.8,2.3-3.9,3.7c-0.8,1.2-1.3,2.5-1.3,4c0,1.3,0.7,2.5,1.8,3.2c1.5,0.9,3.2,1.3,4.9,1.2c1.8,0.1,3.5-0.2,5.1-0.9
	c1.2-0.7,2.2-1.7,2.7-3c0.3-0.5,0.5-0.9,0.6-1.4c0.2-0.6,0.5-1.5,1-2.7c0.8-2.2,1.4-3.9,1.8-4.9c0.4-0.9,0.9-1.9,1.5-2.7
	c0.8-1.2,1.9-2.1,3.1-2.8c1.3-0.6,2.6-0.9,4-0.9c3.2-0.2,6.2,1.6,7.5,4.5c1.5,3,2.2,8.1,2.3,15.4l-8.3,3.2
	c-10.4,4.1-17.9,7.9-22.5,11.4c-4.5,3.5-6.8,7.5-6.8,11.8c-0.1,3.5,1.4,6.8,4.1,9.1c2.8,2.5,6.5,3.8,10.3,3.7
	c4.4,0,8.7-1.7,12.9-5.2c4.1-3.3,7.4-7.5,9.6-12.2C294.7,66.3,294.7,67.5,294.6,69 M165.5,81.2h1.2c0.4,0,1.2,0,2.5,0.1
	c1.3,0,3.6,0.1,6.9,0.1c2.1,0.1,3.6,0.1,4.2,0.1h1.2c0.5,0,0.7-0.2,0.7-0.5s-0.2-0.5-0.7-0.5h-6.3V36.9c1.8-2.6,4-4.9,6.6-6.7
	c2.1-1.3,4.5-2,6.9-1.9c3.2-0.2,6.3,1.4,8,4.2c1.7,2.8,2.6,7.1,2.6,13l0.1,23.4c0,5.1-0.3,8.4-0.9,9.6c-0.6,1.3-2.4,1.9-5.4,1.9
	c-0.5,0-0.7,0.2-0.7,0.5s0.2,0.5,0.7,0.5h2.5c1,0,2.4,0,4.3-0.1c1.2-0.1,2.1-0.1,2.6-0.1h1.1c0.4,0,1.3,0,2.7,0.1s3.9,0.1,7.5,0.1
	c2.3,0.1,3.8,0.1,4.5,0.1h1.3c0.5,0,0.7-0.2,0.7-0.5s-0.2-0.5-0.7-0.5c-2.7,0.1-4.4-0.4-5-1.6c-0.7-1.1-1-3.3-1-6.6V36.9
	c2.4-3.3,4.6-5.6,6.6-6.8c2.1-1.3,4.5-1.9,6.9-1.8c3.3-0.1,6.5,1.5,8.2,4.3c1.9,2.9,2.9,7.2,2.9,12.9v23.4c0,5.1-0.3,8.4-1,9.6
	c-0.7,1.3-2.6,1.9-5.7,1.9c-0.5,0-0.7,0.2-0.7,0.5s0.2,0.5,0.7,0.5h2.5c1,0,2.4,0,4.4-0.1c1.2-0.1,2.1-0.1,2.6-0.1h4.1
	c1.2,0,3.1,0,5.7,0.1c2.2,0.1,3.8,0.1,4.8,0.1h2.2c0.5,0,0.7-0.2,0.7-0.5c0-0.3-0.2-0.5-0.7-0.5c-2.4,0.1-3.9-0.4-4.5-1.4
	c-0.6-1-0.9-3.3-0.9-6.7V45.9c0-7.8-1.5-13.6-4.6-17.5s-7.6-5.8-13.7-5.8c-3.8,0-7.6,1.1-10.8,3.2c-4,2.6-7.4,6-10.1,9.9
	c-0.8-3.8-2.9-7.3-6-9.7c-3.3-2.3-7.3-3.5-11.3-3.3c-3.8,0-7.6,1.1-10.8,3.2c-3.9,2.6-7.3,6-10,9.9c0-2.5-0.5-4.9-1.4-7.2
	c-0.6-2-1.8-3.9-3.2-5.5c-0.1-0.1-0.2-0.2-0.3-0.3c-0.1,0-0.2,0-0.3,0.2c-2.1,1.6-4.4,3-6.7,4.1c-2.4,1.4-5,2.6-7.5,3.7
	c-0.2,0.1-0.2,0.2-0.2,0.3c0,0.2,0.1,0.3,0.2,0.4c1.6,1.4,2.9,2.9,4,4.7c0.8,1.2,1.2,2.6,1.3,4.1v27.5c0,5.3-0.3,8.7-0.9,10.3
	s-2.2,2.4-4.6,2.4c-0.5,0-1.9,0.2-1.9,0.5s1.5,0.5,1.9,0.5h2.6c1,0,2.6,0,4.8-0.1C164,81.2,164.9,81.2,165.5,81.2"/>
<path class="st1" d="M122,27.9c3.5-3,8.5-3.6,12.6-1.5c4.4,1.9,6.7,6,7,12.3c0.3,6.3-1.3,13.4-4.8,21.3c-3.8,8.6-7.6,14.5-11.6,17.7
	c-3.9,3.2-8.1,3.9-12.4,1.9c-4.5-2-6.9-6.1-7.3-12.2c-0.4-6.2,1.2-13.2,4.7-21.2C114.2,37,118.2,30.9,122,27.9 M145.2,74.3
	c3-2.7,5.4-6,7-9.6c3.5-8,3.8-15.6,0.9-22.7c-2.9-7.1-8.5-12.5-16.7-16.1c-8.4-3.7-16.7-4-24.7-1c-7.8,2.9-14.1,8.8-17.3,16.5
	c-3.5,7.9-3.7,15.4-0.7,22.5c3,7.1,8.6,12.5,16.8,16.1c3.8,1.7,7.8,2.6,12,2.7C130.9,82.9,139,79.9,145.2,74.3"/>
<path class="st1" d="M547.4,27.3h-2.7v8.1h-2v-8.1h-2.7v-1.8h7.4L547.4,27.3z"/>
<path class="st1" d="M559.4,35.5l-0.7-6.1l-2.4,5h-1.6l-2.4-5l-0.7,6.1h-2l1.2-9.9h1.7l3.1,6.5l3-6.5h1.7l1.2,9.9H559.4z"/>
</svg>
